<svg xmlns="http://www.w3.org/2000/svg" viewBox="0 0 156 60" fill="none">
  <path fill="#ffffff" d="M94.36 33.597v-1.554c0-1.735-.24-3.248-.73-4.541-.489-1.293-1.165-2.371-2.036-3.229a8.466 8.466 0 00-3.054-1.928c-1.165-.429-2.418-.643-3.757-.643-1.996 0-3.738.442-5.218 1.326-1.48.884-2.625 2.116-3.442 3.704-.818 1.58-1.22 3.422-1.22 5.519 0 2.15.41 4.005 1.22 5.579a8.688 8.688 0 003.482 3.637c1.507.85 3.309 1.279 5.405 1.279 1.681 0 3.162-.262 4.448-.777 1.286-.516 2.337-1.24 3.154-2.177.817-.93 1.588-2.29 1.742-3.63h-5.345a3.403 3.403 0 01-.85 1.3 3.588 3.588 0 01-1.34.796 5.425 5.425 0 01-1.722.268c-.944 0-1.761-.2-2.45-.596a4.034 4.034 0 01-1.602-1.694c-.375-.737-.562-1.608-.562-2.612v-.014H94.36v-.013zM82.6 26.504c.656-.395 1.42-.59 2.276-.59.824 0 1.548.181 2.17.536.623.355 1.112.85 1.467 1.48s.53 1.347.53 2.23h-8.547c.034-.796.221-1.466.563-2.076a4.202 4.202 0 011.54-1.58zm56.353 7.093v-1.554c0-1.735-.241-3.248-.73-4.541-.488-1.293-1.165-2.371-2.036-3.229a8.454 8.454 0 00-3.054-1.928c-1.165-.429-2.418-.643-3.757-.643-1.996 0-3.737.442-5.218 1.326-1.48.884-2.625 2.116-3.442 3.704-.817 1.58-1.219 3.422-1.219 5.519 0 2.15.408 4.005 1.219 5.579a8.686 8.686 0 003.483 3.637c1.506.85 3.308 1.279 5.405 1.279 1.681 0 3.161-.262 4.447-.777 1.286-.516 2.337-1.24 3.154-2.177.818-.93 1.588-2.29 1.742-3.63h-5.345a3.39 3.39 0 01-.851 1.3 3.587 3.587 0 01-1.339.796 5.43 5.43 0 01-1.721.268c-.945 0-1.762-.2-2.452-.596a4.031 4.031 0 01-1.6-1.694c-.376-.737-.563-1.608-.563-2.612v-.014h13.877v-.013zm-11.761-7.093c.657-.395 1.42-.59 2.278-.59.823 0 1.547.181 2.17.536.623.355 1.111.85 1.466 1.48s.53 1.347.53 2.23h-8.547c.034-.796.221-1.466.563-2.076a4.201 4.201 0 011.54-1.58zm-19.798 16.228c-2.09 0-3.878-.442-5.378-1.332-1.5-.891-2.646-2.124-3.45-3.711-.797-1.58-1.198-3.402-1.198-5.465 0-2.09.401-3.918 1.212-5.5.81-1.58 1.962-2.812 3.456-3.703 1.493-.89 3.275-1.333 5.331-1.333 1.775 0 3.336.322 4.669.971 1.332.643 2.391 1.554 3.168 2.72.776 1.165 1.205 2.538 1.285 4.775h-5.331c-.147-1.681-.549-2.498-1.185-3.128-.643-.623-1.481-.937-2.512-.937-.877 0-1.641.234-2.291.71-.649.475-1.158 1.158-1.52 2.062-.362.905-.542 1.996-.542 3.276 0 1.299.18 2.404.535 3.315.355.91.864 1.607 1.521 2.083.656.476 1.42.717 2.297.717.643 0 1.226-.134 1.741-.396.516-.267.945-.65 1.286-1.158.342-.51.563-1.119.67-2.304h5.331c-.087 2.022-.509 3.389-1.265 4.574-.757 1.179-1.795 2.103-3.121 2.766-1.327.67-2.901.998-4.709.998zM62.057 21.561c-.703-1.273-1.727-2.277-3.06-2.994-1.34-.723-2.954-1.085-4.856-1.085H43.947v25.036h5.291V34.4h4.769c1.922 0 3.563-.355 4.923-1.064 1.36-.71 2.39-1.702 3.114-2.974.717-1.273 1.078-2.74 1.078-4.4-.006-1.662-.361-3.128-1.065-4.401zm-4.889 6.584c-.328.63-.83 1.125-1.493 1.48-.663.355-1.507.53-2.525.53h-3.912v-8.346h3.885c1.025 0 1.875.174 2.545.522.67.349 1.165.83 1.5 1.454.328.622.496 1.352.496 2.183 0 .824-.168 1.547-.496 2.177zm14.487-10.663h-5.29v4.327h5.29v-4.327zm-5.29 7.408h5.29v17.635h-5.29V24.89zm-39.557 2.927l-4.528 1.205-6.63-6.597 4.527-1.206 6.63 6.598zM10.68 17.482l3.315 3.295 9.055-2.41-3.315-3.303-9.055 2.418zm24.138 4.019l-9.055 2.41 3.315 3.296 9.055-2.411-3.315-3.295zm-8.292-8.245L22 14.46l6.63 6.598 4.528-1.206-6.63-6.597zm-11.42 22.913l3.316 3.295 2.425-9.008-3.316-3.296-2.424 9.009zM16.6 46.222l1.213-4.508-6.631-6.597-1.212 4.508 6.63 6.597zM8.034 23.416l6.63 6.597 1.213-4.507-6.63-6.597-1.213 4.507zM5 34.675l3.315 3.295 2.425-9.008-3.315-3.295L5 34.675zm25.652-1.607l1.212-4.508-9.055 2.411-1.212 4.508 9.055-2.411zm8.004-6.316l-4.528 1.205-2.424 9.009 4.527-1.206 2.425-9.008zM23.09 45.539l2.425-9.009-4.528 1.206-2.424 9.008 4.527-1.205zm11.32-3.021l1.212-4.508-9.055 2.412-1.213 4.514 9.056-2.418z" />
</svg>
